<mxfile host="www.draw.io" modified="2020-02-04T04:04:45.612Z" agent="Mozilla/5.0 (Macintosh; Intel Mac OS X 10_15_3) AppleWebKit/537.36 (KHTML, like Gecko) Chrome/79.0.3945.130 Safari/537.36" etag="ZPgHDeGV9x6gCgzKFAPm" version="12.6.4" type="github">
  <diagram name="Page-1" id="6qmY6R-QdTtVW79NaYPo">
    <mxGraphModel dx="4351" dy="732" grid="1" gridSize="10" guides="1" tooltips="1" connect="1" arrows="1" fold="1" page="1" pageScale="1" pageWidth="1100" pageHeight="850" math="0" shadow="0">
      <root>
        <mxCell id="Ajm1KAYPgJtNrC5xxtVR-0"/>
        <mxCell id="Ajm1KAYPgJtNrC5xxtVR-1" parent="Ajm1KAYPgJtNrC5xxtVR-0"/>
        <mxCell id="Ajm1KAYPgJtNrC5xxtVR-2" value="" style="rounded=0;whiteSpace=wrap;html=1;" parent="Ajm1KAYPgJtNrC5xxtVR-1" vertex="1">
          <mxGeometry x="-2000" y="290" width="160" height="460" as="geometry"/>
        </mxCell>
        <mxCell id="Ajm1KAYPgJtNrC5xxtVR-3" value="" style="rounded=0;whiteSpace=wrap;html=1;" parent="Ajm1KAYPgJtNrC5xxtVR-1" vertex="1">
          <mxGeometry x="-2085" y="520" width="40" height="50" as="geometry"/>
        </mxCell>
        <mxCell id="Ajm1KAYPgJtNrC5xxtVR-4" value="" style="rounded=0;whiteSpace=wrap;html=1;" parent="Ajm1KAYPgJtNrC5xxtVR-1" vertex="1">
          <mxGeometry x="-2100" y="330" width="70" height="40" as="geometry"/>
        </mxCell>
        <mxCell id="Ajm1KAYPgJtNrC5xxtVR-5" value="" style="rounded=0;whiteSpace=wrap;html=1;" parent="Ajm1KAYPgJtNrC5xxtVR-1" vertex="1">
          <mxGeometry x="-2075" y="370" width="20" height="10" as="geometry"/>
        </mxCell>
        <mxCell id="Ajm1KAYPgJtNrC5xxtVR-6" value="" style="rounded=0;whiteSpace=wrap;html=1;snapToPoint=0;" parent="Ajm1KAYPgJtNrC5xxtVR-1" vertex="1">
          <mxGeometry x="-2082.5" y="522.5" width="35" height="43.5" as="geometry"/>
        </mxCell>
        <mxCell id="Ajm1KAYPgJtNrC5xxtVR-7" value="" style="rounded=0;whiteSpace=wrap;html=1;" parent="Ajm1KAYPgJtNrC5xxtVR-1" vertex="1">
          <mxGeometry x="-2075" y="433" width="20" height="30" as="geometry"/>
        </mxCell>
        <mxCell id="Ajm1KAYPgJtNrC5xxtVR-8" value="" style="rounded=0;whiteSpace=wrap;html=1;" parent="Ajm1KAYPgJtNrC5xxtVR-1" vertex="1">
          <mxGeometry x="-2072.5" y="436" width="15" height="21" as="geometry"/>
        </mxCell>
        <mxCell id="Ajm1KAYPgJtNrC5xxtVR-9" value="Welcome&lt;br&gt;Client&lt;br&gt;(App.js)" style="rounded=0;whiteSpace=wrap;html=1;" parent="Ajm1KAYPgJtNrC5xxtVR-1" vertex="1">
          <mxGeometry x="-1980" y="312.5" width="120" height="415" as="geometry"/>
        </mxCell>
        <mxCell id="Ajm1KAYPgJtNrC5xxtVR-10" value="Spacewar&lt;br&gt;Client" style="rounded=0;whiteSpace=wrap;html=1;" parent="Ajm1KAYPgJtNrC5xxtVR-1" vertex="1">
          <mxGeometry x="-1970" y="600" width="100" height="110" as="geometry"/>
        </mxCell>
        <mxCell id="Ajm1KAYPgJtNrC5xxtVR-11" value="Welcome-to-Spacewar&lt;br&gt;Server" style="rounded=0;whiteSpace=wrap;html=1;" parent="Ajm1KAYPgJtNrC5xxtVR-1" vertex="1">
          <mxGeometry x="-1620" y="300" width="130" height="70" as="geometry"/>
        </mxCell>
        <mxCell id="Ajm1KAYPgJtNrC5xxtVR-12" style="edgeStyle=orthogonalEdgeStyle;rounded=0;orthogonalLoop=1;jettySize=auto;html=1;exitX=0.5;exitY=1;exitDx=0;exitDy=0;entryX=0.5;entryY=0;entryDx=0;entryDy=0;" parent="Ajm1KAYPgJtNrC5xxtVR-1" source="Ajm1KAYPgJtNrC5xxtVR-13" target="Ajm1KAYPgJtNrC5xxtVR-15" edge="1">
          <mxGeometry relative="1" as="geometry"/>
        </mxCell>
        <mxCell id="Ajm1KAYPgJtNrC5xxtVR-13" value="Matchmaker&lt;br&gt;Server" style="rounded=0;whiteSpace=wrap;html=1;" parent="Ajm1KAYPgJtNrC5xxtVR-1" vertex="1">
          <mxGeometry x="-1620" y="420" width="130" height="58" as="geometry"/>
        </mxCell>
        <mxCell id="Ajm1KAYPgJtNrC5xxtVR-14" value="Spacewar&lt;br&gt;Server" style="rounded=0;whiteSpace=wrap;html=1;" parent="Ajm1KAYPgJtNrC5xxtVR-1" vertex="1">
          <mxGeometry x="-1620" y="610" width="130" height="90" as="geometry"/>
        </mxCell>
        <mxCell id="Ajm1KAYPgJtNrC5xxtVR-15" value="Instance Manager" style="rounded=0;whiteSpace=wrap;html=1;" parent="Ajm1KAYPgJtNrC5xxtVR-1" vertex="1">
          <mxGeometry x="-1620" y="507" width="130" height="53" as="geometry"/>
        </mxCell>
        <mxCell id="Ajm1KAYPgJtNrC5xxtVR-16" value="" style="endArrow=classic;html=1;exitX=1;exitY=0.5;exitDx=0;exitDy=0;entryX=0;entryY=0.5;entryDx=0;entryDy=0;" parent="Ajm1KAYPgJtNrC5xxtVR-1" source="Ajm1KAYPgJtNrC5xxtVR-15" target="D3kGs7h_7CpqP5WuoXMM-0" edge="1">
          <mxGeometry width="50" height="50" relative="1" as="geometry">
            <mxPoint x="-2050" y="710" as="sourcePoint"/>
            <mxPoint x="-2000" y="660" as="targetPoint"/>
          </mxGeometry>
        </mxCell>
        <mxCell id="Ajm1KAYPgJtNrC5xxtVR-17" value="" style="shape=cylinder;whiteSpace=wrap;html=1;boundedLbl=1;backgroundOutline=1;" parent="Ajm1KAYPgJtNrC5xxtVR-1" vertex="1">
          <mxGeometry x="-1420" y="370" width="91.53" height="80" as="geometry"/>
        </mxCell>
        <mxCell id="Ajm1KAYPgJtNrC5xxtVR-18" value="Sessions&lt;br&gt;Telemetry" style="text;html=1;align=center;verticalAlign=middle;resizable=0;points=[];autosize=1;" parent="Ajm1KAYPgJtNrC5xxtVR-1" vertex="1">
          <mxGeometry x="-1407.5" y="403" width="70" height="30" as="geometry"/>
        </mxCell>
        <mxCell id="Ajm1KAYPgJtNrC5xxtVR-19" value="Desktop" style="text;html=1;strokeColor=none;fillColor=none;align=center;verticalAlign=middle;whiteSpace=wrap;rounded=0;" parent="Ajm1KAYPgJtNrC5xxtVR-1" vertex="1">
          <mxGeometry x="-2085" y="310" width="40" height="20" as="geometry"/>
        </mxCell>
        <mxCell id="Ajm1KAYPgJtNrC5xxtVR-20" value="Phone" style="text;html=1;strokeColor=none;fillColor=none;align=center;verticalAlign=middle;whiteSpace=wrap;rounded=0;" parent="Ajm1KAYPgJtNrC5xxtVR-1" vertex="1">
          <mxGeometry x="-2085" y="413" width="40" height="20" as="geometry"/>
        </mxCell>
        <mxCell id="Ajm1KAYPgJtNrC5xxtVR-21" value="Tablet" style="text;html=1;strokeColor=none;fillColor=none;align=center;verticalAlign=middle;whiteSpace=wrap;rounded=0;" parent="Ajm1KAYPgJtNrC5xxtVR-1" vertex="1">
          <mxGeometry x="-2087.5" y="500" width="40" height="20" as="geometry"/>
        </mxCell>
        <mxCell id="Ajm1KAYPgJtNrC5xxtVR-22" value="" style="endArrow=classic;html=1;" parent="Ajm1KAYPgJtNrC5xxtVR-1" edge="1">
          <mxGeometry width="50" height="50" relative="1" as="geometry">
            <mxPoint x="-1618" y="332" as="sourcePoint"/>
            <mxPoint x="-1858" y="332" as="targetPoint"/>
          </mxGeometry>
        </mxCell>
        <mxCell id="Ajm1KAYPgJtNrC5xxtVR-23" value="Browser" style="text;html=1;strokeColor=none;fillColor=none;align=center;verticalAlign=middle;whiteSpace=wrap;rounded=0;" parent="Ajm1KAYPgJtNrC5xxtVR-1" vertex="1">
          <mxGeometry x="-1990" y="290" width="40" height="20" as="geometry"/>
        </mxCell>
        <mxCell id="Ajm1KAYPgJtNrC5xxtVR-24" value="GET spacewar.html" style="text;html=1;strokeColor=none;fillColor=none;align=center;verticalAlign=middle;whiteSpace=wrap;rounded=0;" parent="Ajm1KAYPgJtNrC5xxtVR-1" vertex="1">
          <mxGeometry x="-1785" y="290" width="110" height="20" as="geometry"/>
        </mxCell>
        <mxCell id="Ajm1KAYPgJtNrC5xxtVR-25" value="spacewar.html&lt;br&gt;welcome_client.js" style="text;html=1;strokeColor=none;fillColor=none;align=center;verticalAlign=middle;whiteSpace=wrap;rounded=0;" parent="Ajm1KAYPgJtNrC5xxtVR-1" vertex="1">
          <mxGeometry x="-1755" y="340" width="40" height="20" as="geometry"/>
        </mxCell>
        <mxCell id="Ajm1KAYPgJtNrC5xxtVR-26" value="GET lobby/ls, POST lobby/new&lt;br&gt;PUT lobby/play, DELETE lobby/rm" style="text;html=1;strokeColor=none;fillColor=none;align=center;verticalAlign=middle;whiteSpace=wrap;rounded=0;" parent="Ajm1KAYPgJtNrC5xxtVR-1" vertex="1">
          <mxGeometry x="-1860" y="413" width="250" height="40" as="geometry"/>
        </mxCell>
        <mxCell id="Ajm1KAYPgJtNrC5xxtVR-27" value="" style="endArrow=classic;html=1;entryX=0.96;entryY=1.05;entryDx=0;entryDy=0;entryPerimeter=0;" parent="Ajm1KAYPgJtNrC5xxtVR-1" target="Ajm1KAYPgJtNrC5xxtVR-26" edge="1">
          <mxGeometry width="50" height="50" relative="1" as="geometry">
            <mxPoint x="-1857" y="455" as="sourcePoint"/>
            <mxPoint x="-2050" y="670" as="targetPoint"/>
          </mxGeometry>
        </mxCell>
        <mxCell id="Ajm1KAYPgJtNrC5xxtVR-28" value="JSON { g1 ... gN }" style="text;html=1;strokeColor=none;fillColor=none;align=center;verticalAlign=middle;whiteSpace=wrap;rounded=0;" parent="Ajm1KAYPgJtNrC5xxtVR-1" vertex="1">
          <mxGeometry x="-1812.5" y="457" width="162.5" height="20" as="geometry"/>
        </mxCell>
        <mxCell id="Ajm1KAYPgJtNrC5xxtVR-29" value="" style="endArrow=classic;html=1;exitX=1.01;exitY=0.182;exitDx=0;exitDy=0;exitPerimeter=0;" parent="Ajm1KAYPgJtNrC5xxtVR-1" source="Ajm1KAYPgJtNrC5xxtVR-10" edge="1">
          <mxGeometry width="50" height="50" relative="1" as="geometry">
            <mxPoint x="-2100" y="780" as="sourcePoint"/>
            <mxPoint x="-1620" y="620" as="targetPoint"/>
          </mxGeometry>
        </mxCell>
        <mxCell id="Ajm1KAYPgJtNrC5xxtVR-30" value="Connect&amp;nbsp; srv:port_i" style="text;html=1;strokeColor=none;fillColor=none;align=center;verticalAlign=middle;whiteSpace=wrap;rounded=0;" parent="Ajm1KAYPgJtNrC5xxtVR-1" vertex="1">
          <mxGeometry x="-1795" y="600" width="120" height="20" as="geometry"/>
        </mxCell>
        <mxCell id="Ajm1KAYPgJtNrC5xxtVR-31" value="State { ob1, ..., obK }" style="text;html=1;strokeColor=none;fillColor=none;align=center;verticalAlign=middle;whiteSpace=wrap;rounded=0;" parent="Ajm1KAYPgJtNrC5xxtVR-1" vertex="1">
          <mxGeometry x="-1815" y="640" width="140" height="20" as="geometry"/>
        </mxCell>
        <mxCell id="Ajm1KAYPgJtNrC5xxtVR-32" value="" style="endArrow=classic;html=1;exitX=0;exitY=0.5;exitDx=0;exitDy=0;entryX=1;entryY=0.5;entryDx=0;entryDy=0;" parent="Ajm1KAYPgJtNrC5xxtVR-1" source="Ajm1KAYPgJtNrC5xxtVR-14" target="Ajm1KAYPgJtNrC5xxtVR-10" edge="1">
          <mxGeometry width="50" height="50" relative="1" as="geometry">
            <mxPoint x="-2100" y="780" as="sourcePoint"/>
            <mxPoint x="-2050" y="730" as="targetPoint"/>
          </mxGeometry>
        </mxCell>
        <mxCell id="Ajm1KAYPgJtNrC5xxtVR-33" value="" style="endArrow=classic;html=1;entryX=0;entryY=0.25;entryDx=0;entryDy=0;" parent="Ajm1KAYPgJtNrC5xxtVR-1" target="Ajm1KAYPgJtNrC5xxtVR-11" edge="1">
          <mxGeometry width="50" height="50" relative="1" as="geometry">
            <mxPoint x="-1838" y="318" as="sourcePoint"/>
            <mxPoint x="-2050" y="710" as="targetPoint"/>
          </mxGeometry>
        </mxCell>
        <mxCell id="Ajm1KAYPgJtNrC5xxtVR-34" value="" style="endArrow=classic;html=1;entryX=0;entryY=0.75;entryDx=0;entryDy=0;exitX=1;exitY=0.691;exitDx=0;exitDy=0;exitPerimeter=0;" parent="Ajm1KAYPgJtNrC5xxtVR-1" source="Ajm1KAYPgJtNrC5xxtVR-10" target="Ajm1KAYPgJtNrC5xxtVR-14" edge="1">
          <mxGeometry width="50" height="50" relative="1" as="geometry">
            <mxPoint x="-1860" y="678" as="sourcePoint"/>
            <mxPoint x="-2050" y="770" as="targetPoint"/>
          </mxGeometry>
        </mxCell>
        <mxCell id="Ajm1KAYPgJtNrC5xxtVR-35" value="Control { Right | Left | Burn&amp;nbsp; Fire }" style="text;html=1;strokeColor=none;fillColor=none;align=center;verticalAlign=middle;whiteSpace=wrap;rounded=0;" parent="Ajm1KAYPgJtNrC5xxtVR-1" vertex="1">
          <mxGeometry x="-1840" y="680" width="230" height="20" as="geometry"/>
        </mxCell>
        <mxCell id="Ajm1KAYPgJtNrC5xxtVR-36" value="" style="endArrow=classic;startArrow=classic;html=1;exitX=1;exitY=0.5;exitDx=0;exitDy=0;entryX=0;entryY=0.5;entryDx=0;entryDy=0;" parent="Ajm1KAYPgJtNrC5xxtVR-1" source="Ajm1KAYPgJtNrC5xxtVR-13" target="Ajm1KAYPgJtNrC5xxtVR-17" edge="1">
          <mxGeometry width="50" height="50" relative="1" as="geometry">
            <mxPoint x="-1440" y="520" as="sourcePoint"/>
            <mxPoint x="-1390" y="470" as="targetPoint"/>
            <Array as="points">
              <mxPoint x="-1460" y="449"/>
              <mxPoint x="-1460" y="410"/>
            </Array>
          </mxGeometry>
        </mxCell>
        <mxCell id="Ajm1KAYPgJtNrC5xxtVR-37" value="" style="shape=cylinder;whiteSpace=wrap;html=1;boundedLbl=1;backgroundOutline=1;" parent="Ajm1KAYPgJtNrC5xxtVR-1" vertex="1">
          <mxGeometry x="-1283.27" y="490" width="96.53" height="88.5" as="geometry"/>
        </mxCell>
        <mxCell id="Ajm1KAYPgJtNrC5xxtVR-38" value="Container Repository&lt;br&gt;(Docker Hub)" style="text;html=1;strokeColor=none;fillColor=none;align=center;verticalAlign=middle;whiteSpace=wrap;rounded=0;" parent="Ajm1KAYPgJtNrC5xxtVR-1" vertex="1">
          <mxGeometry x="-1285" y="534.25" width="100" height="20" as="geometry"/>
        </mxCell>
        <mxCell id="Ajm1KAYPgJtNrC5xxtVR-40" value="Pulls" style="text;html=1;strokeColor=none;fillColor=none;align=center;verticalAlign=middle;whiteSpace=wrap;rounded=0;" parent="Ajm1KAYPgJtNrC5xxtVR-1" vertex="1">
          <mxGeometry x="-1337.5" y="510" width="40" height="20" as="geometry"/>
        </mxCell>
        <mxCell id="Ajm1KAYPgJtNrC5xxtVR-41" value="Spacewar&lt;br&gt;Client" style="rounded=0;whiteSpace=wrap;html=1;" parent="Ajm1KAYPgJtNrC5xxtVR-1" vertex="1">
          <mxGeometry x="-1282.5" y="600" width="100" height="100" as="geometry"/>
        </mxCell>
        <mxCell id="Ajm1KAYPgJtNrC5xxtVR-42" value="" style="endArrow=classic;html=1;" parent="Ajm1KAYPgJtNrC5xxtVR-1" edge="1">
          <mxGeometry width="50" height="50" relative="1" as="geometry">
            <mxPoint x="-1284" y="624" as="sourcePoint"/>
            <mxPoint x="-1497" y="624" as="targetPoint"/>
          </mxGeometry>
        </mxCell>
        <mxCell id="Ajm1KAYPgJtNrC5xxtVR-43" value="" style="endArrow=classic;html=1;entryX=-0.035;entryY=0.57;entryDx=0;entryDy=0;entryPerimeter=0;" parent="Ajm1KAYPgJtNrC5xxtVR-1" target="Ajm1KAYPgJtNrC5xxtVR-41" edge="1">
          <mxGeometry width="50" height="50" relative="1" as="geometry">
            <mxPoint x="-1499" y="655" as="sourcePoint"/>
            <mxPoint x="-1370" y="655" as="targetPoint"/>
          </mxGeometry>
        </mxCell>
        <mxCell id="Ajm1KAYPgJtNrC5xxtVR-44" value="" style="endArrow=classic;html=1;entryX=1;entryY=0.75;entryDx=0;entryDy=0;" parent="Ajm1KAYPgJtNrC5xxtVR-1" target="Ajm1KAYPgJtNrC5xxtVR-14" edge="1">
          <mxGeometry width="50" height="50" relative="1" as="geometry">
            <mxPoint x="-1282" y="678" as="sourcePoint"/>
            <mxPoint x="-2000" y="770" as="targetPoint"/>
          </mxGeometry>
        </mxCell>
        <mxCell id="Ajm1KAYPgJtNrC5xxtVR-45" value="Connect&amp;nbsp; srv:port_i" style="text;html=1;strokeColor=none;fillColor=none;align=center;verticalAlign=middle;whiteSpace=wrap;rounded=0;" parent="Ajm1KAYPgJtNrC5xxtVR-1" vertex="1">
          <mxGeometry x="-1456" y="605" width="120" height="20" as="geometry"/>
        </mxCell>
        <mxCell id="Ajm1KAYPgJtNrC5xxtVR-46" value="State { ob1, ..., obK }" style="text;html=1;strokeColor=none;fillColor=none;align=center;verticalAlign=middle;whiteSpace=wrap;rounded=0;" parent="Ajm1KAYPgJtNrC5xxtVR-1" vertex="1">
          <mxGeometry x="-1460" y="636" width="140" height="20" as="geometry"/>
        </mxCell>
        <mxCell id="Ajm1KAYPgJtNrC5xxtVR-47" value="Control { Right | Left | Burn&amp;nbsp; Fire }" style="text;html=1;strokeColor=none;fillColor=none;align=center;verticalAlign=middle;whiteSpace=wrap;rounded=0;" parent="Ajm1KAYPgJtNrC5xxtVR-1" vertex="1">
          <mxGeometry x="-1495" y="680" width="230" height="20" as="geometry"/>
        </mxCell>
        <mxCell id="Ajm1KAYPgJtNrC5xxtVR-48" value="Player 1" style="text;html=1;strokeColor=none;fillColor=none;align=center;verticalAlign=middle;whiteSpace=wrap;rounded=0;fontStyle=2" parent="Ajm1KAYPgJtNrC5xxtVR-1" vertex="1">
          <mxGeometry x="-1950" y="690" width="60" height="20" as="geometry"/>
        </mxCell>
        <mxCell id="Ajm1KAYPgJtNrC5xxtVR-49" value="Player 2" style="text;html=1;strokeColor=none;fillColor=none;align=center;verticalAlign=middle;whiteSpace=wrap;rounded=0;fontStyle=2" parent="Ajm1KAYPgJtNrC5xxtVR-1" vertex="1">
          <mxGeometry x="-1265" y="670" width="60" height="20" as="geometry"/>
        </mxCell>
        <mxCell id="Ajm1KAYPgJtNrC5xxtVR-50" value="" style="endArrow=none;html=1;" parent="Ajm1KAYPgJtNrC5xxtVR-1" edge="1">
          <mxGeometry width="50" height="50" relative="1" as="geometry">
            <mxPoint x="-2130" y="790" as="sourcePoint"/>
            <mxPoint x="-2130" y="150" as="targetPoint"/>
          </mxGeometry>
        </mxCell>
        <mxCell id="Ajm1KAYPgJtNrC5xxtVR-51" value="" style="endArrow=none;html=1;" parent="Ajm1KAYPgJtNrC5xxtVR-1" edge="1">
          <mxGeometry width="50" height="50" relative="1" as="geometry">
            <mxPoint x="-2130" y="790" as="sourcePoint"/>
            <mxPoint x="-1130" y="790" as="targetPoint"/>
          </mxGeometry>
        </mxCell>
        <mxCell id="Ajm1KAYPgJtNrC5xxtVR-52" value="" style="endArrow=none;html=1;" parent="Ajm1KAYPgJtNrC5xxtVR-1" edge="1">
          <mxGeometry width="50" height="50" relative="1" as="geometry">
            <mxPoint x="-1130" y="150" as="sourcePoint"/>
            <mxPoint x="-1130" y="790" as="targetPoint"/>
          </mxGeometry>
        </mxCell>
        <mxCell id="Ajm1KAYPgJtNrC5xxtVR-53" value="" style="endArrow=none;html=1;" parent="Ajm1KAYPgJtNrC5xxtVR-1" edge="1">
          <mxGeometry width="50" height="50" relative="1" as="geometry">
            <mxPoint x="-2130" y="150" as="sourcePoint"/>
            <mxPoint x="-1130" y="150" as="targetPoint"/>
          </mxGeometry>
        </mxCell>
        <mxCell id="Ajm1KAYPgJtNrC5xxtVR-54" value="Multiplayer Spacewar" style="text;html=1;strokeColor=none;fillColor=none;align=center;verticalAlign=middle;whiteSpace=wrap;rounded=0;fontSize=27;" parent="Ajm1KAYPgJtNrC5xxtVR-1" vertex="1">
          <mxGeometry x="-2235" y="166" width="630" height="20" as="geometry"/>
        </mxCell>
        <mxCell id="Ajm1KAYPgJtNrC5xxtVR-55" value="" style="endArrow=none;html=1;fontSize=27;" parent="Ajm1KAYPgJtNrC5xxtVR-1" edge="1">
          <mxGeometry width="50" height="50" relative="1" as="geometry">
            <mxPoint x="-1130" y="210" as="sourcePoint"/>
            <mxPoint x="-2130" y="210" as="targetPoint"/>
          </mxGeometry>
        </mxCell>
        <mxCell id="Ajm1KAYPgJtNrC5xxtVR-56" value="" style="endArrow=none;html=1;fontSize=27;" parent="Ajm1KAYPgJtNrC5xxtVR-1" edge="1">
          <mxGeometry width="50" height="50" relative="1" as="geometry">
            <mxPoint x="-1770" y="210" as="sourcePoint"/>
            <mxPoint x="-1770" y="150" as="targetPoint"/>
          </mxGeometry>
        </mxCell>
        <mxCell id="Ajm1KAYPgJtNrC5xxtVR-57" value="" style="endArrow=none;html=1;fontSize=27;" parent="Ajm1KAYPgJtNrC5xxtVR-1" edge="1">
          <mxGeometry width="50" height="50" relative="1" as="geometry">
            <mxPoint x="-1130" y="180" as="sourcePoint"/>
            <mxPoint x="-1770" y="180" as="targetPoint"/>
          </mxGeometry>
        </mxCell>
        <mxCell id="Ajm1KAYPgJtNrC5xxtVR-58" value="" style="endArrow=none;html=1;fontSize=27;" parent="Ajm1KAYPgJtNrC5xxtVR-1" edge="1">
          <mxGeometry width="50" height="50" relative="1" as="geometry">
            <mxPoint x="-1330" y="210" as="sourcePoint"/>
            <mxPoint x="-1330" y="150" as="targetPoint"/>
          </mxGeometry>
        </mxCell>
        <mxCell id="Ajm1KAYPgJtNrC5xxtVR-59" value="Mark R Cornwell" style="text;html=1;strokeColor=none;fillColor=none;align=center;verticalAlign=middle;whiteSpace=wrap;rounded=0;fontSize=17;" parent="Ajm1KAYPgJtNrC5xxtVR-1" vertex="1">
          <mxGeometry x="-1320" y="155" width="180" height="20" as="geometry"/>
        </mxCell>
        <mxCell id="Ajm1KAYPgJtNrC5xxtVR-60" value="spacewar-v3.drawio" style="text;html=1;strokeColor=none;fillColor=none;align=center;verticalAlign=middle;whiteSpace=wrap;rounded=0;fontSize=17;" parent="Ajm1KAYPgJtNrC5xxtVR-1" vertex="1">
          <mxGeometry x="-1760" y="155" width="190" height="20" as="geometry"/>
        </mxCell>
        <mxCell id="Ajm1KAYPgJtNrC5xxtVR-61" value="https://github/markcornwell/spacewar/master" style="text;html=1;strokeColor=none;fillColor=none;align=center;verticalAlign=middle;whiteSpace=wrap;rounded=0;fontSize=17;" parent="Ajm1KAYPgJtNrC5xxtVR-1" vertex="1">
          <mxGeometry x="-1730" y="182" width="320" height="28" as="geometry"/>
        </mxCell>
        <mxCell id="Ajm1KAYPgJtNrC5xxtVR-62" value="January 27, 2020" style="text;html=1;strokeColor=none;fillColor=none;align=center;verticalAlign=middle;whiteSpace=wrap;rounded=0;fontSize=17;" parent="Ajm1KAYPgJtNrC5xxtVR-1" vertex="1">
          <mxGeometry x="-1332.5" y="186" width="200" height="20" as="geometry"/>
        </mxCell>
        <mxCell id="D3kGs7h_7CpqP5WuoXMM-0" value="Docker" style="rounded=0;whiteSpace=wrap;html=1;" parent="Ajm1KAYPgJtNrC5xxtVR-1" vertex="1">
          <mxGeometry x="-1388.47" y="507" width="50.97" height="53" as="geometry"/>
        </mxCell>
        <mxCell id="D3kGs7h_7CpqP5WuoXMM-3" value="" style="endArrow=classic;html=1;entryX=0;entryY=0.5;entryDx=0;entryDy=0;exitX=1;exitY=0.5;exitDx=0;exitDy=0;" parent="Ajm1KAYPgJtNrC5xxtVR-1" source="D3kGs7h_7CpqP5WuoXMM-0" target="Ajm1KAYPgJtNrC5xxtVR-37" edge="1">
          <mxGeometry width="50" height="50" relative="1" as="geometry">
            <mxPoint x="-2258.4700000000003" y="1020" as="sourcePoint"/>
            <mxPoint x="-2208.4700000000003" y="970" as="targetPoint"/>
          </mxGeometry>
        </mxCell>
        <mxCell id="D3kGs7h_7CpqP5WuoXMM-5" value="" style="endArrow=classic;html=1;entryX=0.75;entryY=0;entryDx=0;entryDy=0;exitX=0.5;exitY=1;exitDx=0;exitDy=0;dashed=1;" parent="Ajm1KAYPgJtNrC5xxtVR-1" source="D3kGs7h_7CpqP5WuoXMM-0" target="Ajm1KAYPgJtNrC5xxtVR-14" edge="1">
          <mxGeometry width="50" height="50" relative="1" as="geometry">
            <mxPoint x="-2258.4700000000003" y="1020" as="sourcePoint"/>
            <mxPoint x="-2208.4700000000003" y="970" as="targetPoint"/>
            <Array as="points">
              <mxPoint x="-1363.47" y="580"/>
              <mxPoint x="-1522" y="580"/>
            </Array>
          </mxGeometry>
        </mxCell>
        <mxCell id="D3kGs7h_7CpqP5WuoXMM-6" value="run / start / stop" style="text;html=1;strokeColor=none;fillColor=none;align=center;verticalAlign=middle;whiteSpace=wrap;rounded=0;" parent="Ajm1KAYPgJtNrC5xxtVR-1" vertex="1">
          <mxGeometry x="-1500" y="510" width="100" height="20" as="geometry"/>
        </mxCell>
      </root>
    </mxGraphModel>
  </diagram>
</mxfile>
